#tb 0: 1001/30000
0,          0,          0,        1,    62370, 8525a27170982c059d5904c1af3b43fb
0,          1,          1,        1,    62370, c4eb329733913360384d3917a58f6f36
0,          2,          2,        1,    62370, ec118b87c9cba0e4bd89fd43567cca4e
0,          3,          3,        1,    62370, 7e57c6caba7924823977e2c9bc11f7fa
0,          4,          4,        1,    62370, f77ffb7228a5eda848acc40ff636ecad
0,          5,          5,        1,    62370, c5dddafbe3badcbbcaaebe97076e0394
0,          6,          6,        1,    62370, 34d69ae2e5b4c4fbcc51627237c9abc5
0,          7,          7,        1,    62370, d9c63fa8b18d6c54e5fa31db866c06cc
0,          8,          8,        1,    62370, 7ab392764a399328bf35977539e3148a
0,          9,          9,        1,    62370, 7fbb7bae3ec775298aaa49a286dfb9d1
